<?xml version="1.0" standalone="no"?>
<!DOCTYPE svg PUBLIC "-//W3C//DTD SVG 20010904//EN"
 "http://www.w3.org/TR/2001/REC-SVG-20010904/DTD/svg10.dtd">
<svg version="1.0" xmlns="http://www.w3.org/2000/svg"
 width="206.000000pt" height="206.000000pt" viewBox="0 0 206.000000 206.000000"
 preserveAspectRatio="xMidYMid meet">
<metadata>
Created by potrace 1.14, written by Peter Selinger 2001-2017
</metadata>
<g transform="translate(0.000000,206.000000) scale(0.100000,-0.100000)"
fill="#000000" stroke="none">
<path d="M848 1611 c-8 -3 -14 -13 -13 -21 5 -30 498 -820 512 -820 7 0 16 7
19 15 5 12 -335 579 -438 732 -15 23 -25 44 -21 46 5 3 42 5 84 5 l77 0 105
-166 c57 -92 193 -306 301 -477 l196 -310 -217 -3 c-120 -1 -223 0 -229 2 -6
2 -78 109 -159 238 -295 464 -278 440 -298 432 -6 -2 -34 -39 -61 -82 -272
-425 -376 -589 -381 -605 -11 -26 23 -33 145 -31 63 1 120 2 126 3 17 2 214
304 214 329 0 48 -32 15 -132 -133 l-103 -155 -94 0 -93 0 14 22 c175 279 372
587 374 585 0 -1 92 -146 204 -322 111 -176 205 -322 207 -325 3 -3 124 -5
270 -5 231 0 266 2 273 16 6 11 -9 43 -54 115 -221 349 -505 799 -539 852 -22
34 -45 62 -51 63 -45 5 -226 4 -238 0z"/>
<path d="M5 798 c-2 -7 -3 -89 -2 -183 l2 -170 1025 0 1025 0 2 149 c2 155 -6
198 -33 175 -11 -9 -14 -41 -14 -145 l0 -134 -980 0 -979 0 -3 157 c-3 141 -5
158 -21 161 -9 2 -19 -2 -22 -10z"/>
</g>
</svg>
